<?xml version="1.0" standalone="no"?>
<!DOCTYPE svg PUBLIC "-//W3C//DTD SVG 20010904//EN"
 "http://www.w3.org/TR/2001/REC-SVG-20010904/DTD/svg10.dtd">
<svg version="1.0" xmlns="http://www.w3.org/2000/svg"
 width="308.000000pt" height="308.000000pt" viewBox="0 0 308.000000 308.000000"
 preserveAspectRatio="xMidYMid meet">
<metadata>
Created by potrace 1.11, written by Peter Selinger 2001-2013
</metadata>
<g transform="translate(0.000000,308.000000) scale(0.100000,-0.100000)"
fill="#000000" stroke="none">
<path d="M1300 2990 c0 -5 -7 -10 -15 -10 -20 0 -65 -45 -65 -65 0 -8 -4 -15
-10 -15 -5 0 -10 -7 -10 -16 0 -23 -25 -44 -54 -44 -14 0 -26 -4 -26 -10 0 -5
-13 -10 -30 -10 -16 0 -30 -4 -30 -10 0 -5 -9 -10 -20 -10 -11 0 -20 -4 -20
-10 0 -5 -7 -10 -15 -10 -23 0 -85 -66 -85 -90 0 -24 -22 -50 -42 -50 -8 0
-20 -9 -28 -20 -8 -11 -22 -20 -32 -20 -10 0 -18 -4 -18 -10 0 -5 -7 -10 -15
-10 -17 0 -245 -224 -245 -241 0 -6 -13 -24 -30 -39 -16 -15 -30 -35 -30 -44
0 -9 -4 -16 -10 -16 -5 0 -10 -9 -10 -20 0 -11 -4 -20 -10 -20 -5 0 -10 -8
-10 -18 0 -10 -9 -24 -20 -32 -11 -8 -20 -22 -20 -32 0 -10 -4 -18 -10 -18 -5
0 -10 -9 -10 -20 0 -11 -4 -20 -10 -20 -5 0 -10 -9 -10 -20 0 -11 -4 -20 -10
-20 -5 0 -10 -9 -10 -20 0 -11 -4 -20 -10 -20 -5 0 -10 -9 -10 -20 0 -11 -4
-20 -10 -20 -5 0 -10 -13 -10 -30 0 -16 -4 -30 -10 -30 -5 0 -10 -9 -10 -20 0
-11 -4 -20 -10 -20 -5 0 -10 -9 -10 -20 0 -11 -4 -20 -10 -20 -5 0 -10 -13
-10 -30 0 -16 -4 -30 -10 -30 -6 0 -10 -33 -10 -80 0 -95 11 -102 70 -40 21
22 41 40 44 40 3 0 6 -18 6 -40 0 -22 -4 -40 -10 -40 -5 0 -10 -18 -10 -40 0
-22 -4 -40 -10 -40 -6 0 -10 -27 -10 -60 0 -33 -4 -60 -10 -60 -6 0 -10 -107
-10 -300 0 -193 4 -300 10 -300 6 0 10 -27 10 -60 0 -33 4 -60 10 -60 6 0 10
-22 10 -50 0 -27 5 -50 10 -50 6 0 10 -13 10 -30 0 -16 5 -30 10 -30 6 0 10
-18 10 -40 0 -22 5 -40 10 -40 6 0 10 -9 10 -20 0 -11 5 -20 10 -20 6 0 10
-13 10 -30 0 -16 5 -30 10 -30 6 0 10 -9 10 -20 0 -11 5 -20 10 -20 6 0 10 -7
10 -15 0 -18 104 -125 121 -125 6 0 20 -9 30 -21 16 -19 20 -20 34 -6 9 10 15
33 15 61 0 25 3 46 6 46 3 0 19 -13 34 -30 15 -16 34 -30 42 -30 7 0 20 -9 28
-20 8 -12 26 -20 42 -20 24 0 28 4 28 30 0 17 -4 30 -10 30 -6 0 -10 27 -10
60 0 33 -4 60 -10 60 -5 0 -10 9 -10 20 0 11 -4 20 -10 20 -6 0 -10 47 -10
120 0 108 2 120 18 120 10 0 24 -9 32 -20 8 -12 26 -20 42 -20 15 0 28 -4 28
-10 0 -5 9 -10 20 -10 11 0 20 -4 20 -10 0 -5 14 -10 30 -10 17 0 30 -4 30
-10 0 -5 14 -10 30 -10 17 0 30 -4 30 -10 0 -6 27 -10 60 -10 33 0 60 -4 60
-10 0 -5 18 -10 40 -10 22 0 40 -4 40 -10 0 -6 90 -10 250 -10 160 0 250 4
250 10 0 6 23 10 50 10 28 0 50 5 50 10 0 6 14 10 30 10 17 0 30 5 30 10 0 6
18 10 40 10 38 0 40 -2 40 -30 0 -16 -4 -30 -10 -30 -5 0 -10 -9 -10 -20 0
-11 -4 -20 -10 -20 -5 0 -10 -13 -10 -30 0 -16 -4 -30 -10 -30 -5 0 -10 -13
-10 -30 0 -16 -4 -30 -10 -30 -5 0 -10 -13 -10 -30 l0 -30 60 0 c33 0 60 4 60
10 0 6 9 10 20 10 11 0 20 5 20 10 0 6 14 10 30 10 17 0 30 -4 30 -10 0 -5 9
-10 20 -10 11 0 20 5 20 10 0 6 14 10 30 10 17 0 30 -4 30 -10 0 -5 18 -10 40
-10 22 0 40 5 40 10 0 6 9 10 20 10 11 0 20 5 20 10 0 6 8 10 18 10 10 0 24 9
32 20 8 11 20 20 28 20 7 0 35 23 62 50 27 28 51 50 54 50 3 0 6 -9 6 -20 0
-11 5 -20 10 -20 6 0 10 -9 10 -20 0 -11 5 -20 10 -20 6 0 10 -13 10 -30 0
-25 4 -30 25 -30 27 0 75 40 75 62 0 8 9 20 20 28 11 8 20 22 20 32 0 10 5 18
10 18 6 0 10 9 10 20 0 11 5 20 10 20 6 0 10 18 10 40 0 22 5 40 10 40 6 0 10
23 10 50 0 28 5 50 10 50 6 0 10 60 10 160 0 100 4 160 10 160 6 0 10 14 10
30 0 17 5 30 10 30 6 0 10 130 10 370 0 240 -4 370 -10 370 -6 0 -10 27 -10
60 0 33 -4 60 -10 60 -5 0 -10 18 -10 40 0 22 -4 40 -10 40 -5 0 -10 9 -10 20
0 11 -4 20 -10 20 -5 0 -10 14 -10 30 0 17 -4 30 -10 30 -5 0 -10 14 -10 30 0
17 -4 30 -10 30 -5 0 -10 9 -10 20 0 11 -4 20 -10 20 -5 0 -10 9 -10 20 0 11
-4 20 -10 20 -5 0 -10 14 -10 30 0 17 5 30 10 30 6 0 10 28 10 65 l0 65 -55
55 c-30 30 -59 55 -65 55 -29 0 -40 30 -40 104 0 44 -4 76 -10 76 -5 0 -10 14
-10 30 0 17 -4 30 -10 30 -5 0 -10 11 -10 25 0 29 -79 115 -105 115 -8 0 -15
5 -15 10 0 6 -9 10 -20 10 -11 0 -20 5 -20 10 0 6 -13 10 -30 10 -16 0 -30 5
-30 10 0 6 -60 10 -160 10 -100 0 -160 -4 -160 -10 0 -5 -9 -10 -20 -10 -11 0
-20 -4 -20 -10 0 -5 -8 -10 -18 -10 -10 0 -24 -9 -32 -20 -8 -11 -21 -20 -30
-20 -9 0 -22 9 -30 20 -8 11 -21 20 -30 20 -9 0 -22 9 -30 20 -8 11 -22 20
-32 20 -10 0 -18 5 -18 10 0 6 -9 10 -20 10 -11 0 -20 5 -20 10 0 6 -9 10 -20
10 -11 0 -20 5 -20 10 0 6 -13 10 -30 10 -16 0 -30 5 -30 10 0 6 -50 10 -130
10 -80 0 -130 -4 -130 -10z"/>
</g>
</svg>
