<?xml version="1.0" standalone="no"?>
<!DOCTYPE svg PUBLIC "-//W3C//DTD SVG 20010904//EN"
 "http://www.w3.org/TR/2001/REC-SVG-20010904/DTD/svg10.dtd">
<svg version="1.0" xmlns="http://www.w3.org/2000/svg"
 width="154.000000pt" height="154.000000pt" viewBox="0 0 154.000000 154.000000"
 preserveAspectRatio="xMidYMid meet">
<metadata>
Created by potrace 1.11, written by Peter Selinger 2001-2013
</metadata>
<g transform="translate(0.000000,154.000000) scale(0.100000,-0.100000)"
fill="#000000" stroke="none">
<path d="M637 1489 c-9 -5 -23 -22 -31 -38 -10 -18 -28 -31 -54 -39 -46 -14
-92 -48 -92 -67 0 -8 -20 -26 -45 -40 -83 -49 -166 -152 -235 -291 -43 -86
-65 -141 -68 -175 -5 -53 4 -61 33 -29 10 11 20 18 22 16 2 -2 -3 -41 -13 -86
-21 -104 -15 -362 10 -455 30 -110 57 -164 99 -200 43 -37 57 -37 57 1 l0 25
33 -25 c49 -37 58 -34 51 16 -4 24 -11 51 -15 60 -11 21 -12 128 -1 128 4 0
12 -4 18 -8 17 -16 92 -41 166 -57 96 -20 264 -19 346 1 35 9 66 14 69 11 3
-3 -4 -31 -16 -62 -28 -76 -28 -78 17 -71 20 4 66 8 102 9 68 2 98 15 152 64
l26 25 13 -36 c7 -20 19 -36 26 -36 16 0 60 66 74 111 28 91 48 547 29 656 -6
34 -23 94 -39 132 -22 53 -27 81 -24 114 5 41 3 46 -36 79 -31 26 -41 42 -41
65 0 38 -18 92 -39 117 -48 56 -211 77 -279 36 l-33 -20 -29 20 c-56 40 -113
60 -175 59 -33 0 -68 -4 -78 -10z"/>
</g>
</svg>
